<svg width="19" height="21" viewBox="0 0 19 21" fill="none" xmlns="http://www.w3.org/2000/svg">
<path d="M14.3941 17.1529C14.5005 17.4797 14.6145 17.8141 14.7209 18.1409C14.8273 18.4753 14.8045 18.5133 14.4473 18.5133C12.3801 18.5133 10.313 18.5133 8.25341 18.5133C6.36106 18.5133 4.4763 18.5209 2.58394 18.5133C1.34517 18.5057 0.303993 17.6773 0.045599 16.4917C0.00759983 16.3321 0 16.1649 0 15.9977C0 11.529 0 7.05273 0 2.58403C0 1.20086 1.10957 0.0988891 2.49274 0.0912892C7.07544 0.0912892 11.6581 0.114089 16.2332 0.0760896C17.6544 0.0608899 18.9464 1.11727 18.9464 2.81203C18.9388 4.37759 18.9464 5.95076 18.9464 7.51632C18.9464 11.6354 18.9464 15.7621 18.9464 19.8812C18.9464 19.9724 18.954 20.056 18.9464 20.1472C18.9388 20.2536 18.992 20.3828 18.8856 20.4436C18.7716 20.5044 18.6956 20.3828 18.6196 20.3144C17.3124 19.2961 16.0052 18.2853 14.6981 17.2669C14.6221 17.2061 14.5385 17.1605 14.4625 17.1073C14.4321 17.1225 14.4169 17.1377 14.3941 17.1529ZM13.5505 6.23955C12.8893 5.95836 12.2357 5.65436 11.5441 5.46437C10.845 5.27437 10.123 5.19077 9.40859 5.19837C8.679 5.20597 7.95702 5.29717 7.24264 5.49477C6.56625 5.68476 5.95066 6.02675 5.28948 6.26995C5.32748 6.20155 5.37308 6.14835 5.42628 6.11035C6.06466 5.60116 6.77145 5.22117 7.56943 5.02358C7.65303 5.00078 7.78982 5.01598 7.76702 4.86398C7.74422 4.73478 7.63023 4.71198 7.51623 4.71958C7.47063 4.71958 7.41743 4.72718 7.37183 4.74238C6.52065 4.89438 5.73787 5.21357 5.01589 5.69996C4.87909 5.79876 4.76509 5.90516 4.68149 6.05715C3.69352 7.85071 3.27553 9.79627 3.10073 11.8178C3.07793 12.1218 3.18433 12.3346 3.41232 12.5246C4.2559 13.2466 5.23628 13.6494 6.33066 13.847C6.74105 13.923 6.96144 13.7938 7.16664 13.467C7.27304 13.2998 7.25024 13.2466 7.07544 13.1782C6.51305 12.9806 6.00386 12.6614 5.54027 12.2966C5.37308 12.1674 5.22108 12.0306 5.10708 11.871C8.08622 13.2314 11.0349 13.2542 13.9761 11.7646C13.9381 11.8026 13.8925 11.8558 13.8469 11.9014C13.2845 12.4334 12.6537 12.8742 11.9241 13.1554C11.7113 13.239 11.6505 13.3074 11.8025 13.5278C11.9925 13.8166 12.1977 13.9078 12.5473 13.847C13.7481 13.657 14.8121 13.2162 15.6784 12.3498C15.7772 12.251 15.8532 12.1522 15.8456 11.9926C15.7164 10.4119 15.4201 8.86909 14.8653 7.37952C14.5157 6.43715 14.0977 5.57077 13.0489 5.20597C12.5397 5.03118 12.0533 4.81838 11.5137 4.73478C11.3845 4.71198 11.2097 4.67399 11.1717 4.85638C11.1261 5.05398 11.3313 5.00838 11.4301 5.05398C11.4605 5.06918 11.5061 5.06918 11.5441 5.08438C12.2889 5.31237 12.9881 5.66196 13.5505 6.23955Z" fill="white"/>
<path d="M7.66824 11.3313C7.38705 11.3389 7.15905 11.2249 6.97666 11.0121C6.56627 10.541 6.52067 9.76578 6.87026 9.24899C7.28065 8.641 7.97984 8.6182 8.42063 9.19579C8.82342 9.72018 8.77022 10.579 8.31423 11.0501C8.13183 11.2401 7.93424 11.3313 7.66824 11.3313Z" fill="white"/>
<path d="M12.2889 10.0924C12.2585 10.4724 12.1445 10.8372 11.8329 11.1108C11.4301 11.468 10.8222 11.392 10.503 10.9436C10.1686 10.48 10.1382 9.75042 10.4346 9.28683C10.6322 8.96764 10.9058 8.76245 11.2933 8.77765C11.6885 8.79285 11.9545 9.03604 12.1293 9.37043C12.2281 9.59083 12.2813 9.82642 12.2889 10.0924Z" fill="white"/>
</svg>
