<svg width="21" height="21" viewBox="0 0 21 21" fill="none" xmlns="http://www.w3.org/2000/svg">
<path d="M10.0622 20.1927C8.61821 20.1927 7.17424 20.2003 5.73027 20.1927C2.56114 20.1851 0 17.6164 0 14.4396C0 11.6733 0 8.91456 0 6.14822C0 3.22229 2.03675 0.835943 4.93229 0.372354C5.22868 0.326755 5.53268 0.303955 5.84427 0.303955C8.64861 0.303955 11.4605 0.303955 14.2649 0.303955C17.282 0.303955 19.7368 2.49271 20.0863 5.49464C20.1091 5.71503 20.1091 5.94303 20.1091 6.17102C20.1091 8.89936 20.0863 11.6277 20.1167 14.356C20.1471 17.054 18.232 19.4935 15.6024 20.0635C15.2757 20.1319 14.9565 20.1851 14.6221 20.1851C13.1021 20.1927 11.5821 20.1927 10.0622 20.1927ZM1.89996 10.1989C1.89996 11.3617 1.89996 12.5245 1.89236 13.6949C1.89236 14.166 1.92276 14.6296 2.00635 15.0932C2.27995 16.6284 3.08553 17.7076 4.6283 18.156C5.22108 18.3307 5.83667 18.3915 6.45985 18.3991C8.8082 18.4067 11.1565 18.3991 13.4973 18.3991C13.9533 18.3991 14.4017 18.3611 14.8425 18.2927C16.56 18.0192 17.6012 17.054 18.0116 15.3668C18.1484 14.7892 18.194 14.1964 18.2016 13.6113C18.2092 11.3845 18.2092 9.16535 18.2016 6.93861C18.2016 6.47502 18.1712 6.01903 18.1028 5.56304C17.8976 4.30146 17.3808 3.24509 16.1952 2.6219C15.4885 2.25711 14.7133 2.10511 13.9305 2.09751C11.3389 2.08231 8.7474 2.08991 6.16346 2.09751C5.69987 2.09751 5.24388 2.15831 4.79549 2.25711C3.34392 2.5611 2.43195 3.41988 2.09755 4.87145C1.97596 5.38824 1.89996 5.91263 1.89996 6.44462C1.89996 7.69859 1.89996 8.94496 1.89996 10.1989Z" fill="white"/>
<path d="M10.0166 5.0918C12.8513 5.0918 15.1465 7.39454 15.1465 10.2369C15.1465 13.0868 12.8437 15.3896 9.98618 15.382C7.13624 15.382 4.84869 13.0716 4.84869 10.2065C4.85629 7.37935 7.16664 5.0918 10.0166 5.0918ZM9.99378 6.93856C8.16982 6.93856 6.69545 8.41292 6.69545 10.2369C6.69545 12.0684 8.17742 13.5504 10.009 13.5504C11.8405 13.5504 13.3073 12.0684 13.3073 10.2217C13.3073 8.39772 11.8253 6.93856 9.99378 6.93856Z" fill="white"/>
<path d="M16.6132 4.92479C16.6056 5.61638 16.028 6.17877 15.3364 6.16357C14.6677 6.14837 14.0901 5.56318 14.0977 4.90199C14.1053 4.21801 14.6981 3.64042 15.3744 3.64802C16.0584 3.64802 16.6208 4.22561 16.6132 4.92479Z" fill="white"/>
</svg>
