<svg width="25" height="21" viewBox="0 0 25 21" fill="none" xmlns="http://www.w3.org/2000/svg">
<path d="M7.84302 20.2573C7.74422 20.2573 7.63783 20.2573 7.53903 20.2573C7.50103 20.2497 7.46303 20.2421 7.42503 20.2421C6.83985 20.2421 6.26226 20.1889 5.68467 20.1129C3.66312 19.8317 1.78596 19.1401 0.0607986 18.0534C0.0379991 18.0382 0 18.0306 0 17.9774C1.31477 18.1142 2.60674 18.023 3.88351 17.6734C5.16028 17.3162 6.31546 16.7386 7.35663 15.9178C7.29583 15.895 7.24264 15.8874 7.18944 15.8874C6.69545 15.857 6.21666 15.7658 5.76067 15.5834C4.3091 15.021 3.31353 14.0027 2.75874 12.5511C2.69794 12.3915 2.70554 12.3839 2.87274 12.4067C3.41232 12.4979 3.95191 12.4903 4.4991 12.3991C4.63589 12.3763 4.76509 12.3535 4.90189 12.3079C4.89429 12.2927 4.88669 12.2851 4.88669 12.2851C4.85629 12.2775 4.83349 12.2699 4.80309 12.2623C3.45032 11.9127 2.40915 11.1451 1.67956 9.95954C1.20077 9.18436 0.965178 8.32558 0.949978 7.4136C0.949978 7.2844 0.965178 7.2768 1.07918 7.33C1.64156 7.6264 2.23435 7.80119 2.86514 7.86959C2.96393 7.87719 3.06273 7.90759 3.16153 7.88479C3.16153 7.86959 3.16153 7.86199 3.15393 7.86199C3.12353 7.83919 3.10073 7.81639 3.07033 7.79359C2.69794 7.52 2.37115 7.2084 2.08235 6.84361C1.24637 5.79484 0.88918 4.60926 0.987978 3.27929C1.04118 2.56491 1.24637 1.89612 1.58836 1.26534C1.64916 1.15134 1.65676 1.15134 1.74036 1.25014C2.27235 1.88852 2.85754 2.48131 3.48832 3.0209C5.17548 4.45727 7.09064 5.44524 9.24139 6.00003C10.1002 6.22043 10.9742 6.34962 11.8633 6.41802C12.0381 6.43322 12.0457 6.42562 12.0153 6.24323C11.9393 5.82524 11.9089 5.39965 11.9393 4.97405C12.0153 3.77328 12.4561 2.71691 13.2845 1.84293C14.4093 0.649752 15.8076 0.117764 17.4416 0.246961C18.6652 0.345759 19.7064 0.854948 20.5727 1.71373C20.6487 1.78973 20.7247 1.81253 20.8311 1.78973C21.8495 1.56933 22.8071 1.20454 23.7191 0.687751C23.7647 0.664952 23.8103 0.604153 23.8483 0.634553C23.8939 0.672552 23.8407 0.73335 23.8255 0.778949C23.4379 1.82773 22.7691 2.66371 21.8419 3.28689C21.8115 3.30969 21.7735 3.31729 21.7507 3.37049C22.2447 3.30969 22.7159 3.21089 23.1795 3.0817C23.6431 2.9525 24.0915 2.7929 24.5322 2.61051C24.5322 2.64091 24.5246 2.65611 24.517 2.67131C24.1751 3.1729 23.7951 3.64408 23.3695 4.07728C22.9895 4.46487 22.5867 4.82206 22.1459 5.14125C22.0775 5.19445 22.0471 5.24765 22.0547 5.33885C22.0775 6.04563 22.0547 6.75241 21.9711 7.4516C21.7507 9.29076 21.2035 11.0311 20.3447 12.6651C19.5696 14.1318 18.5892 15.439 17.3656 16.5714C16.4916 17.3846 15.5264 18.0686 14.4777 18.6233C12.4561 19.6873 10.2902 20.1965 8.01022 20.2269C7.94942 20.2421 7.88862 20.2345 7.84302 20.2573Z" fill="white"/>
</svg>
