<svg width="20" height="21" viewBox="0 0 20 21" fill="none" xmlns="http://www.w3.org/2000/svg">
<path d="M7.73662 20.5347C6.79425 20.5347 5.85187 20.5347 4.90189 20.5347C4.90189 19.7824 4.89429 19.03 4.89429 18.27C4.89429 17.9584 4.89429 17.9584 4.5903 17.9584C3.15393 17.9584 1.71756 17.9584 0.288793 17.9584C0 17.9584 0 17.9584 0 17.6696C0 13.0185 0 8.35981 0 3.70112C0 3.57192 0.0227995 3.45032 0.0683984 3.32872C0.463589 2.31795 0.858781 1.30717 1.25397 0.296393C1.36797 0 1.37557 0 1.68716 0C7.56943 0 13.4593 0 19.3416 0C19.4328 0 19.524 0.00759983 19.6152 0.00759983C19.6152 4.2103 19.6152 8.42061 19.6152 12.6233C19.5468 12.6841 19.4784 12.7449 19.4176 12.8133C17.7608 14.4701 16.104 16.1268 14.4549 17.7836C14.3257 17.9128 14.1965 17.966 14.0217 17.966C12.8893 17.9584 11.7569 17.966 10.617 17.9584C10.389 17.9584 10.2294 18.0192 10.0698 18.1788C9.36299 18.9008 8.641 19.6152 7.92662 20.3295C7.85822 20.3979 7.79742 20.4739 7.73662 20.5347ZM10.4574 1.86196C8.09382 1.86196 5.73787 1.86196 3.37432 1.86196C3.10833 1.86196 3.10833 1.86956 3.10833 2.12795C3.10833 6.23186 3.10833 10.3434 3.10833 14.4473C3.10833 14.7057 3.11593 14.7133 3.38192 14.7133C4.5903 14.7133 5.79867 14.7133 7.00704 14.7133C7.18184 14.7133 7.24264 14.7665 7.24264 14.9413C7.23504 15.6404 7.24264 16.3396 7.24264 17.0388C7.24264 17.092 7.21984 17.168 7.26544 17.1908C7.33383 17.2212 7.36423 17.1452 7.40983 17.0996C8.15462 16.3624 8.8918 15.6176 9.62898 14.8729C9.74298 14.7513 9.86458 14.7057 10.0318 14.7057C11.5061 14.7133 12.9729 14.7057 14.4473 14.7133C14.6297 14.7133 14.7665 14.6677 14.9033 14.5309C15.8 13.6265 16.7044 12.7221 17.6088 11.8253C17.7304 11.7037 17.7836 11.5821 17.7836 11.4073C17.776 8.31421 17.7836 5.22868 17.7836 2.13555C17.7836 1.85436 17.7836 1.85436 17.4948 1.85436C15.1389 1.86196 12.7981 1.86196 10.4574 1.86196Z" fill="white"/>
<path d="M9.84176 8.06348C9.84176 8.87666 9.84176 9.68984 9.84176 10.5106C9.84176 10.7462 9.82656 10.7614 9.59096 10.7614C9.11978 10.7614 8.64859 10.7538 8.1774 10.7614C8.0102 10.7614 7.9494 10.7006 7.9494 10.5334C7.9494 8.87666 7.957 7.22749 7.9494 5.57073C7.9494 5.38834 8.0254 5.33514 8.1926 5.34274C8.66379 5.35034 9.13498 5.35034 9.60616 5.34274C9.78096 5.34274 9.84176 5.40354 9.84176 5.57833C9.83416 6.40671 9.84176 7.23509 9.84176 8.06348Z" fill="white"/>
<path d="M14.736 8.05578C14.736 8.87656 14.7284 9.69734 14.736 10.5181C14.736 10.7005 14.6828 10.7689 14.4928 10.7613C14.0217 10.7537 13.5505 10.7537 13.0793 10.7613C12.9349 10.7613 12.8741 10.7081 12.8741 10.5561C12.8741 8.89176 12.8741 7.2198 12.8741 5.55543C12.8741 5.40344 12.9273 5.34264 13.0793 5.35024C13.5657 5.35024 14.0445 5.35784 14.5308 5.35024C14.6904 5.35024 14.7436 5.41864 14.736 5.57063C14.736 6.39902 14.736 7.2274 14.736 8.05578Z" fill="white"/>
</svg>
